<svg width="1604" height="1604" viewBox="0 0 1604 1604" fill="none" xmlns="http://www.w3.org/2000/svg">
<g clip-path="url(#clip0_801_6093)">
<rect width="1604" height="1604" fill="#FE9839"/>
<mask id="mask0_801_6093" style="mask-type:alpha" maskUnits="userSpaceOnUse" x="60" y="143" width="1422" height="1568">
<path d="M201.49 1063.31C188.443 1072.93 182.547 1080.09 170.842 1091.31C124 1136.21 84.9452 1318 60.9998 1597C48.9832 1737.01 483.506 1706.85 792.999 1708.5C1094.97 1710.11 1391.49 1717.5 1462.49 1594.5C1479.99 1549 1486.49 1325.5 1475.49 1254.5C1470.99 1240.66 1449.78 1147.86 1443.99 1140C1431.63 1123.2 1393.98 1115.6 1375.77 1107.82C1318.89 1083.51 1262.55 1065.06 1204.35 1044.96C1170.72 1033.34 1149.78 1025.26 1117.49 1010.48C1104.5 1004.53 1086.91 999.696 1068.04 991.08C1054.53 984.909 1047.86 979.479 1034.08 973.939C1026.35 970.832 1021.02 971.312 1013.92 966.937C992.491 953.719 997.338 931.422 994.536 905.415C992.56 887.082 994.328 886.592 994.536 858.198L1027.5 803.536C1038.43 786.712 1043.95 769.174 1047.88 749.297C1049.52 741.012 1050 727.775 1050 727.775C1050 727.775 1058.7 728.142 1061.72 725.447C1064.97 722.537 1067.02 719.801 1066.71 715.445C1066.44 711.616 1061.72 706.982 1061.72 706.982C1061.72 706.982 1071.17 692.959 1075.55 685.44C1080.83 676.399 1082.19 670.343 1084.19 660.068C1086.49 648.263 1085.19 641.318 1085.3 629.292C1085.33 625.373 1085.3 619.257 1085.3 619.257C1085.3 619.257 1091.77 611.923 1094.54 607.639C1097.9 602.451 1100.92 592.06 1100.92 586.924C1100.92 578.835 1100.54 564.633 1095.75 558.273C1093.51 555.293 1085.3 555.46 1085.3 555.46C1092.44 536.388 1099.46 514.072 1099.46 493.248C1099.46 463.859 1100.55 426.716 1097.79 397.498C1096.03 378.91 1097.21 377.706 1096.18 359.094C1095.15 340.762 1097.37 330.889 1097.79 312.534C1097.99 303.453 1098.9 298.29 1097.79 289.274C1096.5 278.848 1095.16 272.849 1090.76 263.31C1083.81 248.242 1075.09 242.588 1063.42 230.793C1048.19 215.395 1037.38 206.359 1020.49 195.696C1008.78 188.3 997.04 184.063 983.736 180.551C965.714 175.793 936.848 171.633 936.848 171.633C936.848 171.633 852.009 152.728 809.146 147.555C790.199 145.268 771.257 143.197 752.145 144.31C741.742 144.915 731.669 146.293 724.823 147.555C710.154 150.259 695.901 155.945 682.523 162.404C669.174 168.849 661.03 172.46 648.608 180.551C630.672 192.233 614.823 207.697 602.123 224.906C593.244 236.937 578.448 263.31 578.448 263.31C578.448 263.31 558.93 297.329 554.015 315.238C549.794 330.616 551.026 349.094 551.026 349.094L558.21 410.286C558.21 410.286 571.031 484.409 573.681 539.783C569.732 538.499 563.638 540.305 560.699 543.818C557.657 547.453 558.21 550.353 558.21 555.095C558.21 563.715 559.482 569.499 560.699 578.034C561.842 586.054 563.293 590.118 565.159 598.001C566.865 605.206 568.001 609.459 569.887 616.516L570.074 617.216C572.733 627.169 575.27 636.052 577.244 642.602C579.219 649.153 581.045 655.489 582.997 663.869C584.616 670.821 585.172 674.795 586.619 681.785C588.093 688.904 586.619 683.885 590.48 699.996C594.34 716.108 600.369 709.378 600.369 709.378C600.369 709.378 600.255 715.768 600.369 719.859C600.646 729.821 602.676 746.762 602.946 749.777C603.216 752.792 609.033 774.253 615.077 788.276C624.832 810.909 651.369 846.411 651.369 846.411C651.369 846.411 635.957 847.621 625.083 855.185C625.083 855.185 615.489 861.485 612.718 867.806C609.575 874.975 612.718 887.852 612.718 887.852C602.796 889.385 594.688 889.327 587.914 897.961C580.407 907.53 580.409 917.866 580.411 925.281L580.411 925.632C580.411 929.345 585.02 950.71 585.02 950.71C564.301 968.613 544.1 974.129 517.574 981.762C494.887 988.29 481.73 990.292 458.661 995.302C435.822 1000.26 422.94 1002.68 400.031 1007.3C356.718 1016.05 310.425 1019.2 268.114 1031.3C240.365 1039.24 224.723 1046.17 201.49 1063.31Z" fill="#C4C4C4" stroke="black"/>
</mask>
<g mask="url(#mask0_801_6093)">
<path d="M73.1304 1152.39C64.4445 1161.07 16.9212 1272.43 3.34961 1292.32L40 1612.5H163C230.406 1639.18 444.992 1626.35 450.421 1628.52C455.85 1630.69 668.924 1639.37 774.782 1643.44H1047.57L1472 1633L1494.08 1412.83L1513.08 1199.87L1385.5 1062.86L1145.29 967.907L909.141 943.49L649.924 931.282L405.635 958.411C335.967 972.428 195.546 1001.28 191.203 1004.53C185.775 1008.6 83.9877 1141.54 73.1304 1152.39Z" fill="url(#paint0_linear_801_6093)"/>
<path d="M504.402 631.516C504.402 657.9 581.457 797.938 583.485 814.175L601.735 838.529C644.994 845.971 738.001 860.854 763.956 860.854C796.4 860.854 911.983 875.061 934.288 875.061C956.594 875.061 1072.18 881.149 1082.32 875.061C1090.43 870.19 1122.19 863.56 1137.07 860.854C1159.37 810.792 1205.2 702.956 1210.06 672.107C1214.93 641.258 1221.56 551.011 1236.43 515.832L1248.59 276.346L972.816 116.013L836.956 101.806C765.308 114.66 622.418 170.81 615.929 178.928C607.818 189.076 504.402 262.139 504.402 276.346C504.402 290.553 484.125 381.882 486.152 402.178C488.18 422.473 504.402 605.132 504.402 631.516Z" fill="url(#paint1_linear_801_6093)"/>
<path d="M1040.55 1008.27C1029.88 1029.66 969.912 1043.81 959.236 1056.58L914.324 1072.27L885.75 1041.24L868.846 967.284L881.301 896.892L940.91 843.43L1001.79 823.223C1001.79 839.856 999.512 876.043 999.512 912.842C999.512 953.989 1009.05 967.547 1026.84 972.893C1044.64 978.239 1053.9 981.54 1040.55 1008.27Z" fill="url(#paint2_linear_801_6093)"/>
<path d="M694.435 513.25C736.335 511.89 781.318 529.309 781.318 529.309C781.318 529.309 796.527 538.048 804.574 531.768C808.54 528.673 810.817 525.089 812.211 520.178C814.044 513.715 807.003 506.61 807.003 506.61L779.208 494.89C783.056 497.499 779.208 509.992 779.208 509.992C779.208 509.992 776.461 501.572 771.77 497.499C729.884 494.89 712.995 494.713 685.573 492.606C665.444 499.938 656.705 510.571 639.35 522.454C639.35 522.454 672.931 513.948 694.435 513.25Z" fill="#161821"/>
<path d="M964.012 512.489C922.112 511.129 877.129 528.548 877.129 528.548C877.129 528.548 861.919 537.287 853.872 531.006C849.907 527.911 847.629 524.328 846.236 519.416C844.402 512.954 851.444 505.849 851.444 505.849L879.239 494.129C875.391 496.738 879.239 509.231 879.239 509.231C879.239 509.231 881.986 500.811 886.677 496.738C928.563 494.129 945.452 493.952 972.874 491.844C993.003 499.176 1001.74 509.81 1019.1 521.693C1019.1 521.693 985.516 513.187 964.012 512.489Z" fill="#161821"/>
<path d="M703.131 788.119V827.86V834.477L694.329 838.698L672.739 848.547L654.904 850.892L641.293 843.857L629.559 838.698L620.172 819.001L601.868 780.075V735.227V719.813C602.65 713.638 604.214 700.769 604.214 698.701V672.62L601.868 656.264V626.249L599.521 609.282L591.542 603.269V597.641L595.806 593.889H601.868L599.521 580.758V567.678L595.806 558.09L578.366 545.789L556.823 534.146L506.555 575.516L495.271 458.389C504.845 408.262 523.38 307.099 520.917 303.456C518.455 299.814 558.191 221.576 578.366 182.912L637.88 133.709L929.452 139.732L1029.69 170.333L1093.95 208.352C1105.7 252.553 1129.21 342.995 1129.21 351.155V501.509C1129.21 511.842 1106.94 679.417 1105.08 689.617C1103.6 697.778 1093.33 754.788 1088.38 782.274L975.776 869.538L938.042 888.058H905.91H893L835.285 869.538L782.126 812.627L766.178 788.119C766.178 788.119 784.242 788.664 795.795 788.119C805.021 787.684 810.126 786.279 819.36 786.116C831.023 785.91 849.162 788.119 849.162 788.119C849.162 788.119 857.302 800.352 863.684 799.786C875.533 798.734 876.923 790.568 884.942 786.116C900.3 777.589 919.115 787.87 926.048 774.14C927.856 770.558 917.865 764.193 911.473 757.233C902.631 747.603 893.667 746.536 884.942 741.849C866.787 732.096 842.879 726.88 842.879 726.88C842.879 726.88 835.541 729.845 830.6 729.941C825.237 730.046 817.21 726.88 817.21 726.88C817.21 726.88 802.918 727.073 792.948 729.941C781.7 733.177 768.853 743.656 761.268 748.817C750.59 756.081 744.225 763.134 738.326 774.14C734.062 782.095 736.343 787.158 728.989 791.38C724.977 793.683 714.538 791.38 714.538 791.38V777.721V757.233C714.538 757.233 720.079 747.862 725.93 741.849C737.971 729.472 753.687 721.359 768.33 712.583C768.33 712.583 783.776 703.842 792.948 700.389C802.12 696.936 805.82 696.311 814.344 695.147C817.21 704.926 840.244 702.838 842.879 695.147C854.804 695.147 864.283 701.788 875.533 706.391C884.118 709.904 888.407 711.299 897.004 716.546C906.857 722.559 912.261 726.241 922.776 735.227C935.033 745.7 951.475 770.133 951.475 770.133C974.113 758.115 994.35 748.634 1015.04 726.88C1034.34 706.58 1047.44 684.412 1053.24 666.174C1058.25 650.385 1059.37 640.94 1060.83 624.439C1062.24 608.499 1060.83 583.462 1060.83 583.462V501.509C1060.83 493.254 1053.24 481.78 1053.24 481.78L1037.29 451.427V437.276C1037.29 423.244 1039.33 415.227 1037.29 401.344C1035.63 390.107 1034.44 383.589 1029.69 373.268C1024.02 360.934 1020.17 353.18 1009.19 345.191C996.509 335.968 1000.09 340.119 970.46 334.568C940.832 329.017 911.644 323.645 881.585 320.997C858.337 318.948 841.122 315.771 822.48 312.645C785.475 306.441 773.419 303.456 738.08 303.456C724.91 303.456 715.928 301.188 704.666 308.009C695.401 313.621 686.958 329.349 686.958 329.349C670.893 348.785 660.868 373.639 648.152 395.566C638.906 411.51 632.848 422.53 626.073 437.276C622.368 445.339 620.096 449.707 617.679 458.389C614.191 470.917 615.126 478.626 614.67 491.622C614.088 508.219 613.764 517.544 613.382 534.146C612.81 558.977 611.02 575.936 611.02 597.641C611.02 610.474 610.763 635.369 613.382 651.687C616.906 673.649 620.128 692.014 629.559 706.391C637.076 717.851 646.149 729.823 654.904 739.021C671.583 756.544 703.131 788.119 703.131 788.119Z" fill="url(#paint3_linear_801_6093)"/>
<path d="M408.469 1488.14L408.471 1488.12V1488.1V1486.02V1485.52H407.971V1481.33H408.471V1480.83V1476.68V1476.18H407.971V1471.99H408.471V1471.49V1467.34V1466.84H407.971V1462.65H408.471V1462.15V1458V1457.5H407.971V1453.31H408.471V1452.81V1448.65V1448.15H407.971V1443.96H408.471V1443.46V1439.31V1438.81H407.971V1434.62H408.471V1434.12V1429.97V1429.47H407.971V1425.28H408.471V1424.78V1420.63V1420.13H407.971V1415.94H408.471V1415.44V1411.29V1410.79H407.971V1406.6H408.471V1406.1V1401.95V1401.45H407.971V1397.26H408.471V1396.76V1392.61V1392.11H407.971V1387.92H408.471V1387.42V1383.26V1382.76H407.971V1378.58H408.471V1378.08V1376C408.471 1375.36 408.476 1374.68 408.486 1373.97L408.492 1373.47L407.993 1373.46C408.014 1372.17 408.05 1370.78 408.099 1369.31L408.598 1369.32L408.616 1368.82C408.661 1367.51 408.717 1366.13 408.781 1364.69L408.804 1364.19L408.305 1364.17C408.366 1362.83 408.436 1361.43 408.513 1359.99L409.012 1360.02L409.039 1359.52C409.111 1358.18 409.189 1356.81 409.273 1355.4L409.303 1354.9L408.804 1354.87C408.885 1353.52 408.971 1352.13 409.062 1350.72L409.561 1350.75L409.593 1350.25C409.681 1348.9 409.772 1347.52 409.867 1346.13L409.901 1345.63L409.403 1345.6C409.497 1344.23 409.594 1342.84 409.694 1341.44L410.193 1341.48L410.228 1340.98C410.326 1339.62 410.427 1338.24 410.53 1336.86L410.567 1336.36L410.068 1336.32C410.171 1334.94 410.276 1333.56 410.383 1332.16L410.881 1332.2L410.92 1331.7C411.025 1330.33 411.133 1328.96 411.241 1327.58L411.281 1327.08L410.782 1327.05C410.892 1325.66 411.003 1324.28 411.115 1322.89L411.613 1322.93L411.654 1322.43C411.765 1321.06 411.878 1319.68 411.991 1318.31L412.032 1317.81L411.534 1317.77C411.649 1316.38 411.765 1315 411.881 1313.62L412.379 1313.66L412.421 1313.16C412.538 1311.78 412.654 1310.41 412.771 1309.05L412.814 1308.55L412.316 1308.5C412.436 1307.11 412.556 1305.72 412.675 1304.35L413.173 1304.39L413.216 1303.9C413.338 1302.51 413.458 1301.13 413.578 1299.78L413.622 1299.28L413.124 1299.24C413.249 1297.83 413.372 1296.44 413.494 1295.09L413.992 1295.13L414.036 1294.63C414.162 1293.23 414.286 1291.85 414.408 1290.52L414.453 1290.02L413.955 1289.97C414.084 1288.56 414.21 1287.18 414.332 1285.84L414.83 1285.89L414.876 1285.39C415.008 1283.96 415.135 1282.58 415.258 1281.27L415.304 1280.77L414.806 1280.72C414.943 1279.25 415.073 1277.87 415.195 1276.57L415.693 1276.61L415.74 1276.12C415.882 1274.61 416.013 1273.23 416.131 1271.99L416.179 1271.49L415.681 1271.44C415.839 1269.78 415.973 1268.4 416.077 1267.33L416.574 1267.38L416.622 1266.88C416.687 1266.21 416.737 1265.7 416.77 1265.36L416.779 1265.27C417.318 1265.26 417.85 1265.25 418.374 1265.23L418.874 1265.22L418.862 1264.72C420.236 1264.69 421.562 1264.65 422.842 1264.62L422.855 1265.12L423.355 1265.11C424.735 1265.07 426.062 1265.03 427.339 1265L427.838 1264.98L427.824 1264.48C429.202 1264.45 430.521 1264.41 431.785 1264.37L431.8 1264.87L432.3 1264.85C433.688 1264.81 435.01 1264.77 436.272 1264.73L436.772 1264.71L436.756 1264.21C438.161 1264.17 439.492 1264.12 440.757 1264.08L440.774 1264.58L441.274 1264.56C442.676 1264.51 443.998 1264.46 445.25 1264.41L445.75 1264.39L445.731 1263.89C447.138 1263.84 448.458 1263.78 449.712 1263.73L449.733 1264.23L450.233 1264.21C451.632 1264.15 452.949 1264.09 454.211 1264.03L454.711 1264L454.687 1263.5C456.061 1263.44 457.372 1263.37 458.66 1263.31L458.685 1263.81L459.184 1263.78C459.851 1263.75 460.513 1263.72 461.174 1263.68L461.177 1263.68C461.837 1263.65 462.498 1263.62 463.163 1263.58L463.663 1263.56L463.638 1263.06C464.925 1262.99 466.237 1262.93 467.61 1262.86L467.634 1263.36L468.133 1263.34C469.394 1263.28 470.71 1263.22 472.108 1263.16L472.608 1263.14L472.586 1262.64C473.839 1262.58 475.16 1262.53 476.567 1262.47L476.586 1262.97L477.086 1262.95C478.338 1262.9 479.658 1262.85 481.059 1262.8L481.559 1262.79L481.541 1262.29C482.806 1262.24 484.136 1262.2 485.542 1262.15L485.558 1262.65L486.057 1262.64C487.319 1262.6 488.64 1262.55 490.028 1262.51L490.527 1262.5L490.512 1262C491.777 1261.96 493.095 1261.92 494.473 1261.88L494.487 1262.38L494.987 1262.37C496.263 1262.33 497.589 1262.3 498.969 1262.26L499.469 1262.25L499.456 1261.75C500.736 1261.71 502.061 1261.68 503.436 1261.65L503.448 1262.14L503.948 1262.13C504.616 1262.12 505.295 1262.1 505.985 1262.08C506.661 1262.07 507.331 1262.05 507.998 1262.03L508.498 1262.02L508.486 1261.52C509.834 1261.49 511.163 1261.47 512.476 1261.44L512.485 1261.94L512.985 1261.93C514.332 1261.91 515.661 1261.89 516.973 1261.87L517.473 1261.86L517.466 1261.36C518.814 1261.35 520.143 1261.33 521.456 1261.32L521.46 1261.82L521.96 1261.82C523.307 1261.81 524.636 1261.8 525.949 1261.8L526.449 1261.79L526.448 1261.29C527.793 1261.29 529.122 1261.29 530.435 1261.29L530.433 1261.79L530.933 1261.8C532.278 1261.8 533.607 1261.81 534.922 1261.82L535.422 1261.83L535.427 1261.33C536.769 1261.34 538.096 1261.36 539.41 1261.38L539.402 1261.88L539.901 1261.89C541.245 1261.91 542.574 1261.93 543.892 1261.96L544.392 1261.97L544.403 1261.48C545.746 1261.51 547.076 1261.54 548.397 1261.58L548.381 1262.08L548.881 1262.1C550.219 1262.14 551.547 1262.18 552.867 1262.23L553.367 1262.25L553.385 1261.75C554.721 1261.8 556.048 1261.86 557.369 1261.92L557.346 1262.42L557.846 1262.44C559.179 1262.5 560.506 1262.57 561.829 1262.64L562.328 1262.67L562.355 1262.17C563.686 1262.24 565.014 1262.31 566.34 1262.39L566.309 1262.89L566.808 1262.92C568.136 1263 569.462 1263.09 570.789 1263.18L571.288 1263.21L571.321 1262.71C572.646 1262.8 573.973 1262.89 575.302 1262.99L575.265 1263.49L575.764 1263.53C577.086 1263.63 578.411 1263.73 579.741 1263.84L580.24 1263.88L580.28 1263.38C581.598 1263.48 582.921 1263.59 584.253 1263.71L584.21 1264.2L584.708 1264.25C586.024 1264.36 587.348 1264.48 588.682 1264.6L589.18 1264.64L589.225 1264.15C590.541 1264.26 591.866 1264.39 593.203 1264.51L593.155 1265.01L593.653 1265.06C594.966 1265.18 596.29 1265.31 597.627 1265.44L598.125 1265.49L598.173 1264.99C599.482 1265.12 600.803 1265.25 602.139 1265.39L602.088 1265.89L602.586 1265.94C603.895 1266.07 605.217 1266.21 606.556 1266.34L607.053 1266.4L607.105 1265.9C608.411 1266.03 609.732 1266.17 611.07 1266.31L611.017 1266.81L611.514 1266.86C612.821 1267 614.144 1267.14 615.483 1267.28L615.981 1267.34L616.034 1266.84C617.339 1266.98 618.661 1267.12 620.001 1267.27L619.947 1267.76L620.444 1267.82C621.75 1267.96 623.072 1268.1 624.412 1268.24L624.909 1268.3L624.963 1267.8C626.268 1267.94 627.59 1268.09 628.93 1268.23L628.876 1268.73L629.373 1268.78L631.375 1269L631.956 1269.06L632.453 1269.12L632.507 1268.62L632.965 1268.67L632.911 1269.17L633.408 1269.22L633.989 1269.28L634.043 1268.79L633.989 1269.28C634.657 1269.36 635.318 1269.43 635.973 1269.5L636.47 1269.55L636.524 1269.06C637.85 1269.2 639.15 1269.35 640.425 1269.49L640.368 1269.99L640.865 1270.05C642.195 1270.2 643.498 1270.35 644.775 1270.49L645.271 1270.55L645.329 1270.06C646.656 1270.21 647.954 1270.37 649.227 1270.52L649.167 1271.02L649.663 1271.08C650.993 1271.24 652.295 1271.4 653.57 1271.56L654.066 1271.62L654.128 1271.13C655.452 1271.29 656.746 1271.46 658.013 1271.63L657.947 1272.12L658.443 1272.19C659.771 1272.37 661.069 1272.54 662.34 1272.72L662.835 1272.79L662.904 1272.29C664.229 1272.48 665.524 1272.66 666.792 1272.85L666.719 1273.35L667.213 1273.42C668.539 1273.62 669.836 1273.81 671.106 1274.01L671.6 1274.09L671.678 1273.6C672.991 1273.8 674.277 1274.01 675.539 1274.22L675.456 1274.71L675.949 1274.8C677.269 1275.02 678.561 1275.24 679.833 1275.47L680.325 1275.56L680.413 1275.07C681.718 1275.31 683.001 1275.54 684.266 1275.79L684.171 1276.28L684.662 1276.37C685.965 1276.63 687.25 1276.88 688.522 1277.15L689.011 1277.25L689.112 1276.76C690.402 1277.03 691.678 1277.3 692.947 1277.58L692.838 1278.07L693.326 1278.18C694.61 1278.46 695.886 1278.75 697.161 1279.05L697.648 1279.17L697.762 1278.68C699.032 1278.98 700.301 1279.29 701.575 1279.6L701.454 1280.09L701.939 1280.21C703.202 1280.53 704.471 1280.85 705.75 1281.18L706.234 1281.31L706.36 1280.82C707.611 1281.15 708.873 1281.49 710.151 1281.83L710.02 1282.31L710.503 1282.44C711.751 1282.78 713.015 1283.13 714.299 1283.48L714.781 1283.62L714.914 1283.14C716.153 1283.48 717.41 1283.84 718.69 1284.2L718.553 1284.68L719.034 1284.82C720.272 1285.17 721.532 1285.53 722.818 1285.9L723.298 1286.04L723.436 1285.56C724.672 1285.92 725.931 1286.28 727.218 1286.65L727.078 1287.13L727.558 1287.27C728.79 1287.63 730.047 1288 731.332 1288.38L731.812 1288.52L731.952 1288.04C733.178 1288.4 734.43 1288.76 735.709 1289.14L735.568 1289.62L736.048 1289.76L737.956 1290.32L737.991 1290.33L738.103 1290.36L738.47 1290.47L738.583 1290.51L738.617 1290.52C739.219 1290.69 739.813 1290.87 740.399 1291.05L740.878 1291.19L741.022 1290.71C742.213 1291.07 743.373 1291.43 744.506 1291.79L744.355 1292.26L744.832 1292.41C746.038 1292.8 747.213 1293.18 748.363 1293.55L748.838 1293.71L748.994 1293.24C750.173 1293.63 751.325 1294.01 752.455 1294.4L752.294 1294.87L752.767 1295.03C753.959 1295.44 755.128 1295.84 756.28 1296.24L756.753 1296.4L756.916 1295.93C757.576 1296.16 758.23 1296.38 758.88 1296.61C759.376 1296.78 759.87 1296.95 760.361 1297.12L760.197 1297.59L760.67 1297.76C761.85 1298.17 763.02 1298.57 764.187 1298.97L764.66 1299.13L764.822 1298.66C765.974 1299.05 767.125 1299.43 768.28 1299.81L768.125 1300.29L768.601 1300.44C769.775 1300.82 770.956 1301.2 772.151 1301.57L772.629 1301.71L772.776 1301.24C773.926 1301.59 775.09 1301.93 776.273 1302.27L776.138 1302.75L776.619 1302.88C777.796 1303.22 778.994 1303.54 780.218 1303.86L780.702 1303.98L780.827 1303.49C781.983 1303.79 783.164 1304.08 784.374 1304.36L784.263 1304.84L784.75 1304.95C785.935 1305.22 787.148 1305.49 788.394 1305.74L788.884 1305.84L788.984 1305.35C790.148 1305.58 791.341 1305.81 792.567 1306.03L792.48 1306.52L792.972 1306.61C793.577 1306.72 794.191 1306.82 794.812 1306.93C795.51 1307.04 796.214 1307.15 796.922 1307.26L797.416 1307.34L797.491 1306.84C798.902 1307.05 800.331 1307.24 801.773 1307.42L801.713 1307.91L802.21 1307.97C803.616 1308.14 805.032 1308.3 806.454 1308.44L806.951 1308.49L807.001 1307.99C808.434 1308.13 809.871 1308.25 811.307 1308.37L811.269 1308.86L811.767 1308.9C813.191 1309.01 814.611 1309.11 816.024 1309.2L816.523 1309.23L816.553 1308.73C818.004 1308.81 819.445 1308.89 820.87 1308.96L820.847 1309.46L821.347 1309.48C822.787 1309.54 824.21 1309.6 825.608 1309.64L826.108 1309.66L826.124 1309.16C827.596 1309.21 829.039 1309.24 830.446 1309.27L830.436 1309.77L830.936 1309.78C832.4 1309.81 833.822 1309.83 835.195 1309.85L835.695 1309.85L835.7 1309.35C837.209 1309.37 838.654 1309.37 840.024 1309.37L840.024 1309.87L840.524 1309.87C842.05 1309.87 843.477 1309.87 844.788 1309.86L845.288 1309.85L845.284 1309.35C846.628 1309.34 847.841 1309.33 848.902 1309.32C849.147 1309.32 849.385 1309.31 849.614 1309.31L849.619 1309.81L850.119 1309.81C850.961 1309.8 851.669 1309.79 852.23 1309.79H854.42H854.92V1309.29H859.396V1309.79H859.896H864.277H864.777V1309.29H869.253V1309.79H869.753H874.134H874.634V1309.29H879.111V1309.79H879.611L881.8 1309.79L881.8 1309.79H881.801L881.802 1309.79L881.807 1309.79L881.83 1309.79L881.922 1309.79L882.286 1309.79L883.715 1309.8L884.215 1309.8L884.216 1309.3C885.243 1309.3 886.586 1309.3 888.22 1309.31L888.219 1309.81L888.719 1309.81L892.697 1309.82L893.197 1309.82L893.198 1309.32C894.422 1309.32 895.736 1309.33 897.135 1309.33L897.134 1309.83L897.634 1309.83L901.612 1309.84L902.112 1309.84L902.113 1309.34C903.384 1309.34 904.707 1309.34 906.08 1309.35L906.079 1309.85L906.579 1309.85L910.566 1309.86L911.066 1309.86L911.067 1309.36C912.358 1309.36 913.684 1309.36 915.044 1309.36L915.043 1309.86L915.543 1309.86L919.521 1309.87L920.021 1309.87L920.021 1309.37C921.313 1309.37 922.63 1309.38 923.972 1309.38L923.971 1309.88L924.471 1309.88L928.445 1309.88L928.945 1309.89L928.945 1309.39C930.254 1309.39 931.584 1309.39 932.933 1309.39L932.932 1309.89L933.432 1309.89L937.388 1309.9L937.888 1309.9L937.889 1309.4C939.194 1309.4 940.515 1309.4 941.852 1309.4L941.852 1309.9L942.352 1309.9L946.358 1309.91L946.858 1309.91L946.858 1309.41C948.158 1309.41 949.472 1309.41 950.797 1309.41L950.797 1309.91L951.297 1309.91L955.277 1309.91L955.777 1309.92L955.777 1309.42C957.091 1309.42 958.416 1309.42 959.752 1309.42L959.752 1309.92L960.252 1309.92L964.211 1309.92L964.711 1309.92L964.711 1309.42C966.031 1309.42 967.36 1309.42 968.697 1309.42L968.697 1309.92L969.197 1309.92L973.152 1309.93L973.652 1309.93L973.652 1309.43C974.97 1309.43 976.296 1309.43 977.629 1309.43L977.629 1309.93L978.129 1309.93L982.096 1309.93L982.596 1309.93L982.596 1309.43C983.913 1309.43 985.236 1309.43 986.565 1309.43V1309.93L987.065 1309.93L991.04 1309.93L991.54 1309.93L991.54 1309.43C992.857 1309.43 994.178 1309.43 995.505 1309.43L995.505 1309.93L996.005 1309.93L999.984 1309.93L1000.48 1309.93L1000.48 1309.43C1001.8 1309.43 1003.12 1309.42 1004.45 1309.42L1004.45 1309.92L1004.95 1309.92L1008.93 1309.92L1009.43 1309.92L1009.43 1309.42C1010.74 1309.42 1012.06 1309.42 1013.39 1309.42L1013.39 1309.92L1013.89 1309.92L1017.87 1309.91L1018.37 1309.91L1018.37 1309.41C1019.69 1309.41 1021.01 1309.41 1022.33 1309.41L1022.33 1309.91L1022.83 1309.91L1026.81 1309.91L1027.31 1309.91L1027.31 1309.41C1028.63 1309.4 1029.95 1309.4 1031.27 1309.4L1031.27 1309.9L1031.77 1309.9L1035.75 1309.89L1036.25 1309.89L1036.25 1309.39C1037.57 1309.39 1038.89 1309.39 1040.21 1309.39L1040.21 1309.89L1040.71 1309.89C1042.04 1309.88 1043.36 1309.88 1044.69 1309.88L1045.19 1309.88L1045.19 1309.38C1046.51 1309.38 1047.83 1309.37 1049.15 1309.37L1049.15 1309.87L1049.65 1309.87C1050.98 1309.87 1052.3 1309.86 1053.63 1309.86L1054.13 1309.86L1054.13 1309.36C1055.45 1309.36 1056.77 1309.35 1058.09 1309.35L1058.1 1309.85L1058.6 1309.85C1059.92 1309.85 1061.25 1309.84 1062.57 1309.84L1063.07 1309.84L1063.07 1309.34C1064.39 1309.33 1065.71 1309.33 1067.03 1309.33L1067.04 1309.83L1067.54 1309.83C1068.86 1309.82 1070.19 1309.82 1071.51 1309.81L1072.01 1309.81L1072.01 1309.31C1073.33 1309.31 1074.66 1309.3 1075.97 1309.3L1075.98 1309.8L1076.48 1309.8L1078.46 1309.79C1079.11 1309.79 1079.79 1309.79 1080.49 1309.78L1080.99 1309.78L1080.99 1309.27C1082.28 1309.26 1083.67 1309.24 1085.13 1309.22L1085.14 1309.72L1085.64 1309.71C1086.96 1309.69 1088.33 1309.66 1089.77 1309.63L1090.27 1309.62L1090.25 1309.12C1091.59 1309.09 1092.98 1309.06 1094.4 1309.03L1094.41 1309.53L1094.91 1309.51C1096.25 1309.48 1097.63 1309.44 1099.03 1309.41L1099.53 1309.39L1099.51 1308.89C1100.87 1308.85 1102.26 1308.82 1103.66 1308.77L1103.68 1309.27L1104.17 1309.26C1105.53 1309.22 1106.9 1309.18 1108.29 1309.13L1108.79 1309.12L1108.78 1308.62C1110.15 1308.57 1111.53 1308.53 1112.93 1308.48L1112.94 1308.98L1113.44 1308.97C1114.81 1308.92 1116.18 1308.88 1117.56 1308.83L1118.06 1308.81L1118.04 1308.31C1119.42 1308.27 1120.8 1308.22 1122.19 1308.17L1122.2 1308.67L1122.7 1308.65C1124.07 1308.6 1125.45 1308.55 1126.82 1308.51L1127.32 1308.49L1127.3 1307.99C1128.68 1307.94 1130.07 1307.89 1131.45 1307.84L1131.46 1308.34L1131.96 1308.32C1133.34 1308.27 1134.72 1308.21 1136.08 1308.16L1136.58 1308.14L1136.56 1307.64C1137.95 1307.59 1139.34 1307.54 1140.71 1307.49L1140.73 1307.99L1141.23 1307.97C1142.61 1307.91 1143.99 1307.86 1145.34 1307.81L1145.84 1307.79L1145.82 1307.29C1147.22 1307.23 1148.61 1307.18 1149.96 1307.12L1149.98 1307.62L1150.48 1307.6C1151.88 1307.55 1153.25 1307.49 1154.59 1307.44L1155.09 1307.42L1155.07 1306.92C1156.5 1306.86 1157.88 1306.8 1159.23 1306.75L1159.25 1307.25L1159.75 1307.23C1161.17 1307.17 1162.55 1307.11 1163.86 1307.06L1164.36 1307.04L1164.34 1306.54C1165.8 1306.47 1167.19 1306.42 1168.49 1306.36L1168.51 1306.86L1169.01 1306.84C1170.5 1306.78 1171.86 1306.72 1173.1 1306.67L1173.6 1306.64L1173.57 1306.14C1175.25 1306.07 1176.65 1306.01 1177.73 1305.96L1177.75 1306.46L1178.25 1306.44C1178.91 1306.41 1179.42 1306.39 1179.76 1306.38L1179.77 1306.38V1307.8V1308.3H1180.27V1312.15H1179.77V1312.65V1316.53V1317.03H1180.27V1320.89H1179.77V1321.39V1325.27V1325.77H1180.27V1329.63H1179.77V1330.13V1334.01V1334.51H1180.27V1338.36H1179.77V1338.86V1342.75V1343.25H1180.27V1347.1H1179.77V1347.6V1351.48V1351.98H1180.27V1355.84H1179.77V1356.34V1360.22V1360.72H1180.27V1364.58H1179.77V1365.08V1368.96V1369.46H1180.27V1373.31H1179.77V1373.81V1377.7V1378.2H1180.27V1382.05H1179.77V1382.55V1386.44V1386.94H1180.27V1390.79H1179.77V1391.29V1395.17V1395.67H1180.27V1399.53H1179.77V1400.03V1403.91V1404.41H1180.27V1408.27H1179.77V1408.77V1412.65V1413.15H1180.27V1417H1179.77V1417.5V1421.39V1421.89H1180.27V1425.74H1179.77V1426.24V1430.13V1430.63H1180.27V1434.48H1179.77V1434.98V1438.86V1439.36H1180.27V1443.22H1179.77V1443.72V1447.6V1448.1H1180.27V1451.96H1179.77V1452.46V1454.4V1454.43L1179.77 1454.46L1180.02 1456.47L1180.08 1456.96L1180.57 1456.9L1181.07 1460.92L1180.57 1460.98L1180.63 1461.48L1181.13 1465.49L1181.19 1465.99L1181.69 1465.93L1182.18 1469.95L1181.69 1470.01L1181.75 1470.51L1182.24 1474.52L1182.3 1475.02L1182.8 1474.96L1183.29 1478.98L1182.8 1479.04L1182.86 1479.54L1183.35 1483.55L1183.41 1484.04L1183.91 1483.98L1184.41 1488.01L1183.91 1488.07L1183.97 1488.56L1184.47 1492.58L1184.53 1493.07L1185.02 1493.01L1185.52 1497.03L1185.02 1497.09L1185.08 1497.59L1185.58 1501.6L1185.64 1502.1L1186.14 1502.04L1186.63 1506.06L1186.13 1506.12L1186.2 1506.62L1186.69 1510.63L1186.75 1511.13L1187.25 1511.07L1187.74 1515.09L1187.25 1515.15L1187.31 1515.65L1187.8 1519.66L1187.86 1520.15L1188.36 1520.09L1188.86 1524.12L1188.36 1524.18L1188.42 1524.67L1188.91 1528.69L1188.98 1529.18L1189.47 1529.12L1189.97 1533.14L1189.47 1533.21L1189.53 1533.7L1190.03 1537.71L1190.09 1538.21L1190.58 1538.15L1191.08 1542.17L1190.58 1542.23L1190.65 1542.73L1191.14 1546.74L1191.2 1547.24L1191.7 1547.18L1192.19 1551.2L1191.7 1551.26L1191.76 1551.76L1192.25 1555.77L1192.31 1556.26L1192.81 1556.2L1193.3 1560.23L1192.81 1560.29L1192.87 1560.78L1193.36 1564.8L1193.43 1565.29L1193.92 1565.23L1194.42 1569.25L1193.92 1569.32L1193.98 1569.81L1194.48 1573.82L1194.54 1574.32L1195.03 1574.26L1195.53 1578.28L1195.03 1578.34L1195.09 1578.84L1195.59 1582.85L1195.65 1583.35L1196.15 1583.29L1196.64 1587.31L1196.15 1587.37L1196.21 1587.87L1196.7 1591.88L1196.76 1592.38L1197.26 1592.31L1197.75 1596.34L1197.26 1596.4L1197.32 1596.89L1197.81 1600.91L1197.87 1601.4L1198.37 1601.34L1198.87 1605.36L1198.37 1605.43L1198.43 1605.92L1198.93 1609.93L1198.99 1610.43L1199.48 1610.37L1199.98 1614.39L1199.48 1614.45L1199.54 1614.95L1200.04 1618.96L1200.1 1619.46L1200.6 1619.4L1201.09 1623.42L1200.59 1623.48L1200.66 1623.98L1201.15 1627.99L1201.21 1628.49L1201.71 1628.42L1202.2 1632.45L1201.71 1632.51L1201.77 1633L1202.26 1637.02L1202.32 1637.51L1202.82 1637.45L1203.32 1641.47L1202.82 1641.54L1202.88 1642.03L1203.37 1646.04L1203.44 1646.54L1203.93 1646.48L1204.43 1650.5L1203.93 1650.56L1203.99 1651.06L1204.49 1655.07L1204.55 1655.57L1205.04 1655.51L1205.54 1659.53L1205.04 1659.59L1205.1 1660.09L1205.6 1664.1L1205.66 1664.6L1206.16 1664.53L1206.65 1668.56L1206.16 1668.62L1206.22 1669.12L1206.4 1670.59L1204.9 1670.65L1204.4 1670.68L1204.42 1671.18L1200.33 1671.37L1200.3 1670.87L1199.81 1670.89L1195.73 1671.08L1195.23 1671.1L1195.25 1671.6L1191.16 1671.79L1191.13 1671.29L1190.64 1671.31L1186.56 1671.5L1186.06 1671.52L1186.08 1672.02L1181.99 1672.21L1181.96 1671.71L1181.47 1671.73L1177.39 1671.92L1176.89 1671.94L1176.91 1672.44L1172.82 1672.63L1172.79 1672.13L1172.29 1672.16L1168.22 1672.34L1167.72 1672.37L1167.74 1672.87L1163.65 1673.05L1163.62 1672.55L1163.12 1672.58L1159.05 1672.77L1158.55 1672.79L1158.57 1673.29L1154.48 1673.48L1154.45 1672.98L1153.95 1673L1149.88 1673.19L1149.38 1673.21L1149.4 1673.71L1145.31 1673.9L1145.28 1673.4L1144.78 1673.42L1140.71 1673.61L1140.21 1673.63L1140.23 1674.13L1136.14 1674.32L1136.11 1673.82L1135.61 1673.84L1131.54 1674.03L1131.04 1674.05L1131.06 1674.55L1126.97 1674.74L1126.94 1674.24L1126.44 1674.27L1122.37 1674.45L1121.87 1674.48L1121.89 1674.98L1117.8 1675.17L1117.77 1674.67L1117.27 1674.69L1113.2 1674.88L1112.7 1674.9L1112.72 1675.4L1108.63 1675.59L1108.6 1675.09L1108.1 1675.11L1104.03 1675.3L1103.53 1675.32L1103.55 1675.82L1099.46 1676.01L1099.43 1675.51L1098.93 1675.53L1094.86 1675.72L1094.36 1675.74L1094.38 1676.24L1090.29 1676.43L1090.26 1675.93L1089.76 1675.96L1087.73 1676.05L1087.69 1676.05L1087.65 1676.06L1085.68 1676.44L1085.19 1676.54L1085.29 1677.03L1081.34 1677.79L1081.25 1677.3L1080.76 1677.4L1076.81 1678.17L1076.32 1678.26L1076.42 1678.75L1072.47 1679.52L1072.38 1679.03L1071.89 1679.12L1067.94 1679.89L1067.45 1679.99L1067.55 1680.48L1063.6 1681.24L1063.51 1680.75L1063.02 1680.85L1059.07 1681.62L1058.58 1681.71L1058.68 1682.2L1054.73 1682.97L1054.64 1682.48L1054.15 1682.57L1050.2 1683.34L1049.71 1683.44L1049.81 1683.93L1045.86 1684.69L1045.77 1684.2L1045.28 1684.3L1041.34 1685.06L1040.84 1685.16L1040.94 1685.65L1036.99 1686.42L1036.9 1685.93L1036.41 1686.02L1032.47 1686.79L1031.97 1686.88L1032.07 1687.38L1028.12 1688.14L1028.03 1687.65L1027.54 1687.75L1023.6 1688.51L1023.11 1688.61L1023.2 1689.1L1019.25 1689.87L1019.16 1689.38L1018.67 1689.47L1014.73 1690.24L1014.24 1690.33L1014.33 1690.82L1010.39 1691.59L1010.29 1691.1L1009.8 1691.2L1005.86 1691.96L1005.37 1692.06L1005.46 1692.55L1001.52 1693.32L1001.42 1692.83L1000.93 1692.92L996.987 1693.69L996.496 1693.78L996.592 1694.27L992.646 1695.04L992.55 1694.55L992.06 1694.65L988.118 1695.41L987.627 1695.51L987.722 1696L983.776 1696.77L983.681 1696.27L983.19 1696.37L979.248 1697.14L978.757 1697.23L978.853 1697.72L974.907 1698.49L974.811 1698L974.32 1698.1L970.378 1698.86L969.888 1698.96L969.983 1699.45L966.037 1700.22L965.942 1699.72L965.451 1699.82L961.509 1700.59L961.018 1700.68L961.113 1701.17L957.167 1701.94L957.072 1701.45L956.581 1701.54L952.639 1702.31L952.148 1702.41L952.244 1702.9L948.298 1703.66L948.202 1703.17L947.712 1703.27L943.77 1704.04L943.279 1704.13L943.374 1704.62L939.428 1705.39L939.333 1704.9L938.842 1704.99L934.9 1705.76L934.409 1705.86L934.505 1706.35L930.559 1707.11L930.463 1706.62L929.972 1706.72L928.066 1707.09L926.075 1706.95L925.577 1706.91L925.541 1707.41L921.395 1707.11L921.431 1706.61L920.932 1706.58L916.818 1706.28L916.319 1706.24L916.283 1706.74L912.137 1706.44L912.173 1705.95L911.674 1705.91L907.56 1705.61L907.061 1705.58L907.025 1706.08L902.879 1705.78L902.915 1705.28L902.416 1705.24L898.302 1704.95L897.803 1704.91L897.767 1705.41L893.621 1705.11L893.657 1704.61L893.159 1704.58L889.044 1704.28L888.545 1704.25L888.509 1704.74L884.364 1704.45L884.399 1703.95L883.901 1703.91L879.786 1703.62L879.287 1703.58L879.252 1704.08L875.106 1703.78L875.142 1703.28L874.643 1703.25L870.528 1702.95L870.03 1702.91L869.994 1703.41L865.848 1703.12L865.884 1702.62L865.385 1702.58L861.271 1702.28L860.772 1702.25L860.736 1702.75L856.59 1702.45L856.626 1701.95L856.127 1701.91L852.013 1701.62L851.514 1701.58L851.478 1702.08L847.332 1701.78L847.368 1701.28L846.869 1701.25L842.755 1700.95L842.256 1700.92L842.22 1701.42L838.074 1701.12L838.11 1700.62L837.612 1700.58L833.497 1700.29L832.998 1700.25L832.962 1700.75L828.817 1700.45L828.853 1699.95L828.354 1699.92L824.239 1699.62L823.741 1699.59L823.705 1700.08L819.559 1699.79L819.595 1699.29L819.096 1699.25L814.981 1698.96L814.483 1698.92L814.447 1699.42L810.301 1699.12L810.337 1698.62L809.838 1698.59L807.781 1698.44L807.753 1698.44L807.725 1698.44L805.716 1698.52L805.217 1698.54L805.237 1699.04L801.213 1699.2L801.193 1698.7L800.694 1698.72L796.676 1698.88L796.176 1698.9L796.196 1699.4L792.173 1699.56L792.153 1699.06L791.654 1699.08L787.636 1699.24L787.136 1699.26L787.156 1699.76L783.133 1699.92L783.113 1699.42L782.614 1699.44L778.596 1699.6L778.096 1699.62L778.116 1700.12L774.093 1700.28L774.073 1699.78L773.573 1699.8L769.556 1699.96L769.056 1699.98L769.076 1700.48L765.053 1700.64L765.033 1700.14L764.533 1700.16L760.515 1700.32L760.016 1700.34L760.036 1700.84L756.013 1701L755.993 1700.5L755.493 1700.52L751.475 1700.68L750.976 1700.7L750.996 1701.2L746.972 1701.36L746.953 1700.86L746.453 1700.88L742.435 1701.04L741.936 1701.06L741.955 1701.56L737.932 1701.72L737.912 1701.22L737.413 1701.24L733.395 1701.4L732.895 1701.42L732.915 1701.92L728.892 1702.08L728.872 1701.58L728.373 1701.6L724.355 1701.76L723.855 1701.78L723.875 1702.28L719.852 1702.44L719.832 1701.94L719.332 1701.96L715.315 1702.12L714.815 1702.14L714.835 1702.64L710.812 1702.8L710.792 1702.3L710.292 1702.32L706.275 1702.48L705.775 1702.5L705.795 1703L701.772 1703.16L701.752 1702.66L701.252 1702.68L697.234 1702.84L696.735 1702.86L696.755 1703.36L692.732 1703.52L692.712 1703.03L692.212 1703.05L688.194 1703.21L687.695 1703.23L687.715 1703.72L683.691 1703.89L683.672 1703.39L683.172 1703.41L679.154 1703.57L678.654 1703.59L678.674 1704.09L674.651 1704.25L674.631 1703.75L674.132 1703.77L670.114 1703.93L669.614 1703.95L669.634 1704.45L665.611 1704.61L665.591 1704.11L665.092 1704.13L661.074 1704.29L660.574 1704.31L660.594 1704.81L656.571 1704.97L656.551 1704.47L656.051 1704.49L652.034 1704.65L651.534 1704.67L651.554 1705.17L647.531 1705.33L647.511 1704.83L647.011 1704.85L642.993 1705.01L642.494 1705.03L642.514 1705.53L638.491 1705.69L638.471 1705.19L637.971 1705.21L633.953 1705.37L633.454 1705.39L633.474 1705.89L629.451 1706.05L629.431 1705.55L628.931 1705.57L624.913 1705.73L624.414 1705.75L624.434 1706.25L620.41 1706.41L620.39 1705.91L619.891 1705.93L615.873 1706.09L615.373 1706.11L615.393 1706.61L611.37 1706.77L611.35 1706.27L610.851 1706.29L606.833 1706.45L606.333 1706.47L606.353 1706.97L602.33 1707.13L602.31 1706.63L601.811 1706.65L597.793 1706.81L597.293 1706.83L597.313 1707.33L593.29 1707.49L593.27 1706.99L592.77 1707.01L590.875 1707.09L589.095 1706.32L588.635 1706.12L588.438 1706.58L584.644 1704.95L584.842 1704.49L584.383 1704.29L580.614 1702.67L580.155 1702.47L579.957 1702.93L576.164 1701.3L576.361 1700.84L575.902 1700.64L572.133 1699.01L571.674 1698.82L571.476 1699.28L567.683 1697.64L567.881 1697.18L567.421 1696.99L563.652 1695.36L563.193 1695.16L562.995 1695.62L559.202 1693.99L559.4 1693.53L558.941 1693.33L555.171 1691.71L554.712 1691.51L554.514 1691.97L550.721 1690.34L550.919 1689.88L550.46 1689.68L546.69 1688.06L546.231 1687.86L546.033 1688.32L542.24 1686.68L542.438 1686.22L541.979 1686.03L538.21 1684.4L537.75 1684.2L537.553 1684.66L533.759 1683.03L533.957 1682.57L533.498 1682.37L529.729 1680.75L529.27 1680.55L529.072 1681.01L525.279 1679.38L525.476 1678.92L525.017 1678.72L521.248 1677.1L520.789 1676.9L520.591 1677.36L516.798 1675.72L516.996 1675.26L516.536 1675.07L512.767 1673.44L512.308 1673.24L512.11 1673.7L508.317 1672.07L508.515 1671.61L508.056 1671.41L506.171 1670.6L506.076 1670.56H505.973H504.009H503.509V1671.06H499.599V1670.56H499.099H495.17H494.67V1671.06H490.76V1670.56H490.26H486.332H485.832V1671.06H481.921V1670.56H481.421H477.493H476.993V1671.06H473.083V1670.56H472.583H468.655H468.155V1671.06H464.244V1670.56H463.744H459.816H459.316V1671.06H455.406V1670.56H454.906H450.977H450.477V1671.06H446.567V1670.56H446.067H442.139H441.639V1671.06H437.728V1670.56H437.228H433.3H432.8V1671.06H428.89V1670.56H428.39H424.462H423.962V1671.06H420.051V1670.56H419.551H415.623H415.123V1671.06H411.213V1670.56H410.713H406.784H406.284V1671.06H402.374V1670.56H401.874H397.946H397.446V1671.06H393.535V1670.56H393.035H391.62L391.757 1669.07L391.803 1668.58L391.305 1668.53L391.683 1664.44L392.18 1664.49L392.226 1663.99L392.602 1659.92L392.648 1659.43L392.15 1659.38L392.528 1655.29L393.025 1655.34L393.071 1654.84L393.447 1650.78L393.493 1650.28L392.995 1650.23L393.372 1646.15L393.87 1646.19L393.916 1645.69L394.292 1641.63L394.338 1641.13L393.84 1641.08L394.217 1637L394.715 1637.04L394.761 1636.55L395.137 1632.48L395.183 1631.98L394.685 1631.94L395.062 1627.85L395.56 1627.9L395.606 1627.4L395.982 1623.33L396.028 1622.83L395.53 1622.79L395.907 1618.7L396.405 1618.75L396.451 1618.25L396.827 1614.18L396.873 1613.69L396.375 1613.64L396.752 1609.55L397.25 1609.6L397.296 1609.1L397.672 1605.04L397.718 1604.54L397.22 1604.49L397.597 1600.41L398.095 1600.45L398.141 1599.95L398.517 1595.89L398.563 1595.39L398.065 1595.34L398.442 1591.26L398.94 1591.3L398.986 1590.8L399.362 1586.74L399.408 1586.24L398.91 1586.2L399.287 1582.11L399.785 1582.15L399.831 1581.66L400.207 1577.59L400.253 1577.09L399.755 1577.05L400.132 1572.96L400.63 1573.01L400.676 1572.51L401.052 1568.44L401.098 1567.94L400.6 1567.9L400.977 1563.81L401.475 1563.86L401.521 1563.36L401.897 1559.29L401.943 1558.8L401.445 1558.75L401.822 1554.66L402.32 1554.71L402.366 1554.21L402.742 1550.15L402.788 1549.65L402.29 1549.6L402.667 1545.52L403.165 1545.56L403.211 1545.06L403.587 1541L403.633 1540.5L403.135 1540.45L403.512 1536.37L404.01 1536.41L404.056 1535.92L404.432 1531.85L404.478 1531.35L403.98 1531.31L404.357 1527.22L404.855 1527.27L404.901 1526.77L405.277 1522.7L405.323 1522.2L404.825 1522.16L405.202 1518.07L405.7 1518.12L405.746 1517.62L406.122 1513.55L406.168 1513.06L405.67 1513.01L406.047 1508.92L406.545 1508.97L406.591 1508.47L406.967 1504.41L407.013 1503.91L406.515 1503.86L406.892 1499.77L407.39 1499.82L407.436 1499.32L407.812 1495.26L407.858 1494.76L407.36 1494.71L407.737 1490.63L408.235 1490.67L408.281 1490.17L408.469 1488.14Z" fill="url(#paint4_linear_801_6093)" stroke="url(#paint5_linear_801_6093)" stroke-linecap="square" stroke-dasharray="4 5"/>
<path d="M452.801 1264.07C550.638 1361.91 740.387 1555.49 742.758 1562.6M798.1 1562.6C806.995 1581.38 516.078 1262.65 516.078 1262.65C457.387 1311.52 478.456 1292.66 408.671 1354.68M841.583 1551.73C830.713 1546.79 719.04 1425.23 711.134 1420.29C711.134 1420.29 619.043 1318.85 573.913 1267.14C496.566 1335.83 463.535 1359.49 408.427 1402.2M845.414 1486.64C812.924 1461 676.123 1333.82 627.04 1272.88C537.765 1348.93 543.582 1346.74 408.567 1446.67M824.783 1407.45C798.656 1390.56 701.826 1293.73 701.826 1293.73C662.358 1326.1 537.632 1436.35 426.726 1517.64M812.924 1344.2C797.112 1341.83 769.441 1316.2 757.582 1303.68C656.338 1373.84 522.917 1486.64 457.387 1538.88M731.888 1572.48C731.888 1572.48 933.646 1403.85 1041.15 1299.22M812.924 1556.67L1041.15 1350.33C1041.15 1350.33 1006.87 1320.59 990.229 1300.66C947.992 1338.35 889.215 1375.78 835.654 1420.29C764.976 1479.03 700.92 1542.71 671.604 1562.6M618.239 1556.67C618.239 1556.67 747.811 1457.3 835.654 1373.84M567.838 1551.73C631.416 1503.31 773.987 1390.05 835.654 1324.43M512.496 1538.88C560.262 1502.65 689.59 1401.71 824.783 1287.87M404.683 1486.64C456.151 1449.57 560.056 1374.59 666.334 1282.41M411.845 1303.51C411.845 1303.51 437.651 1284.04 457.387 1264.07M990.229 1344.2C1006.87 1364.12 1041.15 1393.87 1041.15 1393.87" stroke="url(#paint6_linear_801_6093)" stroke-linecap="round" stroke-dasharray="4 5"/>
<path d="M412.616 1441.43C425.849 1455.88 453.782 1486.38 459.646 1492.73M409.496 1384.77C452.658 1430.18 538.314 1520.58 547.597 1526.94M409.496 1336.62C479.939 1407.68 620.036 1548.56 628.831 1554.42M414.102 1280.95C509.917 1376.96 703.7 1571.35 718.262 1583.35" stroke="url(#paint7_linear_801_6093)" stroke-linecap="round" stroke-dasharray="4 5"/>
<path d="M605.495 1005.72C605.495 1005.72 586.733 991.06 586.864 971.29C586.966 955.762 602.52 954.206 614.354 955.182C630.11 956.481 684.719 978.95 703.825 993.102C741.268 1020.84 720.978 1055.6 736.087 1080.51L698.056 1066.65C698.056 1066.65 666.902 1055.07 649.159 1043.62C630.194 1031.39 605.495 1005.72 605.495 1005.72Z" fill="url(#paint8_linear_801_6093)" stroke="black"/>
<path fill-rule="evenodd" clip-rule="evenodd" d="M586.591 971.341C586.46 991.048 605.223 1005.67 605.223 1005.67C605.223 1005.67 629.923 1031.25 648.89 1043.45C666.634 1054.86 697.79 1066.4 697.79 1066.4L735.823 1080.21C730.05 1070.72 729.445 1059.8 728.813 1048.39C727.791 1029.93 726.697 1010.17 703.559 993.084C684.453 978.976 629.84 956.578 614.082 955.283C602.248 954.311 586.693 955.862 586.591 971.341ZM590.463 973.386C590.339 991.786 608.178 1005.43 608.178 1005.43C608.178 1005.43 631.663 1029.32 649.696 1040.71C666.567 1051.36 696.189 1062.14 696.189 1062.14L732.35 1075.03C726.861 1066.18 726.286 1055.98 725.685 1045.32C724.713 1028.09 723.673 1009.64 701.674 993.687C683.508 980.515 631.583 959.602 616.602 958.393C605.35 957.485 590.56 958.934 590.463 973.386Z" fill="url(#paint9_linear_801_6093)"/>
<path d="M651.547 979.687C642.447 973.834 637.434 968.849 627.523 965.017C619.43 961.888 615.66 960.249 607.485 957.338C599.719 954.573 593.997 954.744 588.099 948.988C583.581 944.579 581.857 941.013 580.077 934.959C577.905 927.576 578.412 919.761 580.077 912.247C581.355 906.477 585.047 899.607 585.047 899.607C585.047 899.607 589.266 893.346 593.78 891.674C599.482 889.563 606.87 890.485 613.03 890.485C613.03 890.485 609.792 881.433 610.173 876.616C610.57 871.609 611.794 866.234 615.702 861.144C618.726 857.206 621.342 855.71 625.617 853.182C633.272 848.655 638.353 846.301 648.131 846.997C651.695 847.25 659.295 849.955 659.295 849.955C659.295 849.955 658.566 846.439 658.57 843.696C658.575 839.729 661.238 837.2 663.995 835.351C668.992 831.998 671.103 830.881 675.701 828.503C680.082 826.237 684.424 823.735 689.377 823.735H710.77C710.77 823.735 707.51 817.04 706.731 814.379C704.821 807.857 705.955 800.322 708.641 795.011C712.491 787.397 718.134 782.89 728.485 779.98C741.376 776.357 762.579 783.654 762.579 783.654L785.642 790.996L810.145 798.357C810.145 798.357 812.51 793.527 815.17 791.538C819.857 788.034 824.468 789.058 829.748 789.926C837.643 791.225 841.21 792.675 841.698 802.237C841.698 802.237 841.545 809.513 843.763 813.283C848.092 820.641 856.286 824.588 862.855 833.087C873.856 847.322 880.521 864.303 890.932 878.846C895.329 884.989 897.991 888.489 903.891 893.209C911.545 899.33 918.615 900.184 926.445 908.833C932.029 915.002 937.232 928.343 941.969 941.737C949.389 962.721 952.249 997.792 952.249 997.792C952.249 997.792 951.288 1003.68 954.134 1010.66C957.439 1018.76 956.794 1016.55 968.96 1034.31C981.125 1052.08 991.018 1070.41 1000.63 1089.71C1014.59 1117.75 1021.96 1134.69 1034.52 1162.4C1042.56 1180.15 1046.91 1190.17 1055.07 1207.87C1069.75 1239.75 1078.2 1257.53 1093.72 1289.02C1116.14 1334.52 1129.21 1359.81 1153.4 1404.39C1169.26 1433.62 1194.99 1478.7 1194.99 1478.7L1214.63 1518.47L1284.5 1607.44L1178.62 1600.89L1060.5 1607.44L976.563 1666.32L952.249 1607.44C952.249 1607.44 925.557 1511.41 915.485 1467.65C901.467 1406.75 885.113 1346.41 873.229 1285.01C870.297 1269.86 865.656 1246.23 865.656 1246.23L861.268 1220.54C861.268 1220.54 856.645 1187.54 843.411 1172.54C833.801 1161.64 821.132 1152.74 809.752 1143.86C809.752 1143.86 786.289 1127.73 772.807 1116.1C760.329 1105.33 754.177 1099.03 743.177 1087.35C724.541 1067.56 719.082 1052.17 702.262 1031.89C692.41 1020.01 688.423 1014 677.476 1003.12C667.797 993.499 661.296 985.958 651.547 979.687Z" fill="url(#paint10_linear_801_6093)"/>
<path d="M968.548 1163.78C968.548 1163.78 952.475 1170.68 942.634 1176.03C923.624 1186.36 902.99 1200.19 866.01 1227.95C859.229 1233.04 853.01 1221.89 848.991 1214.3C844.855 1206.49 845.037 1202.51 845.956 1191.83C846.584 1184.55 851.044 1179.65 851.044 1179.65L878.471 1155.8L910.707 1129.13C910.707 1129.13 927.518 1113.93 936.203 1110.65C944.011 1107.71 963.576 1101.72 963.576 1101.72C979.53 1097.07 1006.66 1085.43 1023.16 1086.4C1031.47 1086.89 1037.99 1105.38 1037.99 1105.38C1037.99 1105.38 1040.55 1114.1 1039.09 1122.74C1037.78 1130.54 1036.3 1135.23 1030.44 1140.33C1021.79 1147.87 1005.37 1151.12 994.926 1154.96L968.548 1163.78Z" fill="#181615"/>
<path d="M934.076 1139.23C928.499 1147.1 885.353 1154.91 885.353 1154.91C885.353 1154.91 930.81 1114.58 931.509 1119.85C932.208 1125.13 930.274 1127.3 934.076 1139.23Z" fill="url(#paint11_linear_801_6093)"/>
<path d="M1034.32 1108.8C1031.71 1102.61 1029.88 1089.65 1017.52 1092.31C1002.34 1095.57 978.885 1103.45 978.885 1103.45C978.885 1103.45 944.292 1114.55 941.306 1115.81C935.435 1118.28 938.836 1132.64 942.431 1141.56C946.021 1150.48 949.61 1155.04 960.069 1156.99C967.532 1156.01 992.929 1148.69 1012.94 1141.56L1013.28 1141.44C1027.6 1136.35 1039.04 1132.27 1034.32 1108.8Z" fill="#0B0A0A"/>
</g>
</g>
<defs>
<linearGradient id="paint0_linear_801_6093" x1="1450.23" y1="1196.63" x2="131.729" y2="1190.3" gradientUnits="userSpaceOnUse">
<stop stop-color="#1A1519"/>
<stop offset="0.261127" stop-color="#1A1519"/>
<stop offset="0.56674" stop-color="#1F191D"/>
<stop offset="1" stop-color="#201B1F"/>
</linearGradient>
<linearGradient id="paint1_linear_801_6093" x1="1248.59" y1="624.96" x2="485.982" y2="513.195" gradientUnits="userSpaceOnUse">
<stop offset="0.1677" stop-color="#795050"/>
<stop offset="0.560838" stop-color="#A37355"/>
<stop offset="0.776413" stop-color="#B68868"/>
<stop offset="1" stop-color="#D5A37D"/>
</linearGradient>
<linearGradient id="paint2_linear_801_6093" x1="991.912" y1="914.754" x2="815.133" y2="988.825" gradientUnits="userSpaceOnUse">
<stop stop-color="#3D2A23"/>
<stop offset="1" stop-color="#75543F"/>
</linearGradient>
<linearGradient id="paint3_linear_801_6093" x1="1238.29" y1="317.289" x2="570.239" y2="232.991" gradientUnits="userSpaceOnUse">
<stop stop-color="#181317"/>
<stop offset="0.0001" stop-color="#181317"/>
<stop offset="1" stop-color="#252020"/>
</linearGradient>
<linearGradient id="paint4_linear_801_6093" x1="1240.31" y1="1496.75" x2="318.403" y2="1371.91" gradientUnits="userSpaceOnUse">
<stop stop-color="#525544"/>
<stop offset="0.486925" stop-color="#3B3C2F"/>
<stop offset="1" stop-color="#667053"/>
</linearGradient>
<linearGradient id="paint5_linear_801_6093" x1="1210.14" y1="1411.46" x2="370.486" y2="1334.19" gradientUnits="userSpaceOnUse">
<stop stop-color="#42443A"/>
<stop offset="0.510417" stop-color="#5D6145"/>
<stop offset="0.996564" stop-color="#868F78"/>
</linearGradient>
<linearGradient id="paint6_linear_801_6093" x1="1048.43" y1="1385.54" x2="364.631" y2="1367.6" gradientUnits="userSpaceOnUse">
<stop offset="0.00736439" stop-color="#5C5E4B"/>
<stop offset="0.484558" stop-color="#585945"/>
<stop offset="0.952315" stop-color="#7D8765"/>
</linearGradient>
<linearGradient id="paint7_linear_801_6093" x1="1185.99" y1="1339.69" x2="302.83" y2="1335.7" gradientUnits="userSpaceOnUse">
<stop stop-color="#5C5E4B"/>
<stop offset="0.505208" stop-color="#585945"/>
<stop offset="0.927522" stop-color="#7D8765"/>
</linearGradient>
<linearGradient id="paint8_linear_801_6093" x1="469.456" y1="1201.23" x2="719.031" y2="940.465" gradientUnits="userSpaceOnUse">
<stop offset="0.466264" stop-color="#B48461"/>
<stop offset="1" stop-color="#432F26" stop-opacity="0.92"/>
</linearGradient>
<linearGradient id="paint9_linear_801_6093" x1="482.299" y1="1184.27" x2="714.315" y2="936.614" gradientUnits="userSpaceOnUse">
<stop offset="0.466264" stop-color="#966E51"/>
<stop offset="1" stop-color="#432F26" stop-opacity="0.92"/>
</linearGradient>
<linearGradient id="paint10_linear_801_6093" x1="1314.27" y1="1179.88" x2="393.489" y2="917.419" gradientUnits="userSpaceOnUse">
<stop offset="0.170777" stop-color="#624242"/>
<stop offset="0.381138" stop-color="#86604C"/>
<stop offset="0.874934" stop-color="#D39E76"/>
</linearGradient>
<linearGradient id="paint11_linear_801_6093" x1="1064.14" y1="1058.2" x2="866.774" y2="1157.38" gradientUnits="userSpaceOnUse">
<stop offset="0.0573855" stop-color="white" stop-opacity="0.62"/>
<stop offset="1" stop-color="#1E1E1E" stop-opacity="0"/>
</linearGradient>
<clipPath id="clip0_801_6093">
<rect width="1604" height="1604" fill="white"/>
</clipPath>
</defs>
</svg>
